<svg width="40" height="39" viewBox="0 0 40 39" fill="none" xmlns="http://www.w3.org/2000/svg">
<path d="M10.5057 27.908L6.09681 2.94093H0V0.033325C0.1333 0.0249938 0.264934 0.00833125 0.396568 0C2.97092 0 5.54528 0 8.11964 0C8.43123 0 8.56952 0.0566525 8.61951 0.404899C8.80613 1.63126 9.03941 2.84929 9.25602 4.07065C9.27435 4.17562 9.31101 4.2756 9.35266 4.42389H40C38.8236 10.3308 37.6572 16.1743 36.4742 22.0545H12.4436C12.6102 23.0542 12.7768 24.009 12.9568 25.0021H36.7058V27.908H10.5057Z" fill="#0D3450"/>
<path d="M13.2333 38.0772C12.3778 38.0824 11.5399 37.8337 10.8258 37.3624C10.1117 36.8911 9.5536 36.2185 9.22208 35.4298C8.89056 34.6411 8.80057 33.7717 8.96351 32.9318C9.12646 32.0919 9.535 31.3193 10.1374 30.7117C10.7398 30.1042 11.509 29.6891 12.3475 29.519C13.1859 29.3489 14.056 29.4315 14.8476 29.7563C15.6391 30.0811 16.3164 30.6335 16.7937 31.3436C17.271 32.0536 17.5269 32.8894 17.5289 33.7449C17.5263 34.8868 17.0741 35.9817 16.2701 36.7925C15.4661 37.6034 14.3751 38.0649 13.2333 38.0772Z" fill="#E63F3F"/>
<path d="M33.8249 38.0772C32.9693 38.0824 32.1314 37.8337 31.4174 37.3624C30.7033 36.8911 30.1452 36.2185 29.8136 35.4298C29.4821 34.6411 29.3921 33.7717 29.5551 32.9318C29.718 32.0919 30.1266 31.3193 30.729 30.7117C31.3314 30.1042 32.1005 29.6891 32.939 29.519C33.7775 29.3489 34.6476 29.4315 35.4391 29.7563C36.2306 30.0811 36.9079 30.6335 37.3853 31.3436C37.8626 32.0536 38.1185 32.8894 38.1204 33.7449C38.1179 34.8868 37.6656 35.9817 36.8617 36.7925C36.0577 37.6034 34.9667 38.0649 33.8249 38.0772Z" fill="#E63F3F"/>
</svg>
