<svg width="24" height="40" viewBox="0 0 24 40" fill="none" xmlns="http://www.w3.org/2000/svg">
<path d="M7.4529 4.82488V9.02412C7.43348 9.20819 7.47079 9.3938 7.55981 9.55607C7.64884 9.71835 7.78533 9.84954 7.95101 9.93207C8.07908 9.99974 8.22175 10.0351 8.3666 10.0351C8.51146 10.035 8.6541 9.99957 8.78214 9.93183C8.91017 9.86408 9.01972 9.76608 9.10123 9.64634C9.18275 9.5266 9.23378 9.38876 9.24987 9.2448C9.25933 9.07469 9.25933 8.90419 9.24987 8.73408V0.764348C9.24987 0.133831 9.24987 0.0896947 9.91192 0.133831C10.3785 0.177967 10.8451 0.234714 11.318 0.272545C11.3801 0.271223 11.4419 0.283241 11.499 0.307789C11.5561 0.332337 11.6073 0.368845 11.6491 0.414852C11.691 0.46086 11.7224 0.515298 11.7414 0.574499C11.7605 0.633699 11.7666 0.696286 11.7593 0.758043C11.835 2.79251 11.9149 4.83118 11.9989 6.87406C12.0431 8.13509 12.1061 9.43396 12.1439 10.7139C12.1818 12.101 12.1439 13.4945 11.236 14.642C10.8058 15.1489 10.324 15.6095 9.79842 16.0166C9.35706 16.3823 8.85265 16.6471 8.38606 17.0065C8.11793 17.1859 7.90974 17.4417 7.78836 17.7406C7.66698 18.0396 7.63798 18.368 7.70511 18.6836C8.04559 21.13 8.36505 23.5828 8.66349 26.0418C8.99766 28.3484 9.13686 30.679 9.07963 33.009C9.10721 34.7187 8.86027 36.4217 8.34823 38.0531C8.175 38.5028 7.94169 38.927 7.65466 39.3142C7.42021 39.56 7.13229 39.7486 6.81323 39.8653C6.49417 39.982 6.15252 40.0237 5.81477 39.9871C5.47701 39.9505 5.15221 39.8367 4.86553 39.6544C4.57885 39.4721 4.33799 39.2262 4.1616 38.9358C3.694 38.0099 3.4032 37.005 3.3041 35.9724C3.00128 33.6999 2.9632 31.4 3.1906 29.1187C3.5563 25.8022 3.95353 22.492 4.33815 19.1754C4.33815 19.0746 4.33815 18.9674 4.37598 18.8665C4.46065 18.4398 4.40286 17.997 4.2115 17.6063C4.02013 17.2156 3.70576 16.8985 3.31671 16.7038C2.60746 16.2617 1.94049 15.7552 1.32427 15.1906C0.889452 14.7912 0.545608 14.303 0.316062 13.759C0.0865163 13.2151 -0.0233609 12.6281 -0.00611682 12.038C-0.00611682 9.51593 0.0758504 6.99386 0.151512 4.50962C0.201954 3.25489 0.309142 2.03169 0.372193 0.802179C0.365724 0.733463 0.374175 0.66416 0.396969 0.599012C0.419762 0.533864 0.45636 0.474409 0.504258 0.424715C0.552156 0.37502 0.610224 0.33626 0.674489 0.311084C0.738754 0.285909 0.807699 0.274913 0.876607 0.27885C1.36841 0.241019 1.89804 0.203188 2.35832 0.140136C2.71772 0.0959999 2.8186 0.253629 2.8186 0.581498C2.8186 1.84253 2.8186 3.10357 2.8186 4.31416C2.8186 5.78326 2.8186 7.24606 2.8186 8.72778C2.8186 9.52854 3.16538 9.98881 3.76437 9.98881C4.36337 9.98881 4.70385 9.51593 4.70385 8.72778C4.70385 6.05439 4.70385 3.3873 4.70385 0.713907C4.71015 0.0392533 4.75429 -0.00488281 5.39741 -0.00488281H6.80977C7.38985 -0.00488281 7.44029 0.0581689 7.44029 0.625634V4.82488H7.4529Z" fill="#0D3450"/>
<path d="M13.9787 31.521C13.7959 28.1981 14.3697 24.9258 14.7858 21.6471C14.9687 20.2221 15.0506 18.7845 15.1515 17.3469C15.265 15.7959 15.3533 14.2448 15.4479 12.6937C15.4479 12.4604 15.4479 12.2208 15.4479 11.9875V0.884142C15.4479 0.253625 15.4479 0.196879 16.1288 0.253625C17.2634 0.255837 18.3748 0.575248 19.3374 1.17578C20.3001 1.77632 21.0756 2.63405 21.5765 3.65211C22.4144 5.34669 22.8727 7.20362 22.9195 9.09347C22.9762 10.1149 22.9573 11.1363 23.0078 12.1515C23.0727 13.2738 22.9119 14.3977 22.5351 15.4569C22.1582 16.516 21.5728 17.4889 20.8136 18.3179C20.347 18.8476 19.9182 19.4087 19.4706 19.951C18.9471 20.5618 18.6006 21.304 18.4683 22.0974C18.3361 22.8908 18.4232 23.7053 18.7202 24.4529C19.2685 25.9689 19.6285 27.5465 19.7921 29.1502C19.8625 30.1153 19.8794 31.0836 19.8426 32.0506C19.7732 33.6395 19.6975 35.2032 19.5147 36.8173C19.3822 37.5618 19.1555 38.2864 18.84 38.9737C18.709 39.2714 18.4932 39.524 18.2197 39.7C17.9461 39.876 17.6268 39.9677 17.3016 39.9636C16.381 40.0392 15.492 39.9636 14.956 39.0683C14.7129 38.6805 14.538 38.254 14.439 37.8072C14.2248 36.8237 14.0732 35.8276 13.9851 34.8249C13.922 33.7215 13.9787 32.6055 13.9787 31.521Z" fill="#E63F3F"/>
</svg>
