<svg width="48" height="48" viewBox="0 0 48 48" fill="none" xmlns="http://www.w3.org/2000/svg">
<g clip-path="url(#clip0_394_5137)">
<path d="M16.5204 3.49172C16.7344 3.36335 16.9483 3.23498 17.1623 3.11883C18.0062 2.66443 18.9743 2.49453 19.9226 2.6344C20.8708 2.77427 21.7486 3.21644 22.4255 3.89517C22.8656 4.3353 23.3118 4.78154 23.752 5.22166L44.2423 25.712C44.9582 26.3501 45.4498 27.2015 45.6447 28.1404C45.8395 29.0794 45.7272 30.0561 45.3243 30.9263C45.1707 31.2872 44.9579 31.6198 44.6947 31.9105C43.307 33.2981 41.9194 34.6857 40.5073 36.0978C40.1237 35.7348 39.6619 35.4645 39.1575 35.3077C38.6531 35.1508 38.1195 35.1116 37.5976 35.1931C36.8667 35.2991 36.1961 35.6582 35.7026 36.2078C34.5351 37.4854 34.5228 39.087 35.7576 40.8597L31.9921 44.6253C31.5745 45.0811 31.0666 45.4449 30.5007 45.6937C29.9348 45.9424 29.3233 46.0706 28.7051 46.07C28.0869 46.0694 27.4756 45.9401 26.9102 45.6904C26.3447 45.4406 25.8375 45.0757 25.4208 44.6191L3.81176 23.0101C2.95171 22.2793 2.40133 21.249 2.27196 20.1278C2.14259 19.0066 2.44388 17.8781 3.11489 16.9706C3.13255 16.936 3.14491 16.8989 3.15157 16.8606L7.43058 12.5816L7.7729 12.8383C8.36231 13.2977 9.09011 13.5436 9.83736 13.5358C10.5846 13.5281 11.3071 13.2671 11.8869 12.7955C12.4609 12.3472 12.8697 11.7208 13.049 11.0149C13.2283 10.3089 13.1678 9.56337 12.8772 8.8955C12.687 8.51225 12.4641 8.14616 12.2109 7.8013L16.5204 3.49172ZM17.6758 30.5901L25.3291 38.2434C25.5408 38.5161 25.8119 38.737 26.1217 38.8893C26.4315 39.0417 26.7719 39.1215 27.1172 39.1227C27.4624 39.1238 27.8034 39.0464 28.1142 38.8961C28.4251 38.7459 28.6976 38.5269 28.9112 38.2556L37.9155 29.2514C38.1867 29.0378 38.4058 28.7652 38.556 28.4544C38.7062 28.1435 38.7837 27.8026 38.7825 27.4573C38.7813 27.1121 38.7015 26.7716 38.5492 26.4618C38.3969 26.152 38.176 25.881 37.9033 25.6692C32.8092 20.5752 27.7151 15.4811 22.6211 10.387C22.4088 10.1158 22.1377 9.89639 21.8282 9.74528C21.5187 9.59417 21.1789 9.51535 20.8345 9.51476C20.4901 9.51417 20.1501 9.59183 19.8401 9.74188C19.5301 9.89193 19.2582 10.1104 19.045 10.3809L10.0408 19.3852C9.771 19.5997 9.55332 19.8726 9.40408 20.1833C9.25485 20.4941 9.17793 20.8345 9.17911 21.1792C9.18028 21.5239 9.25952 21.8639 9.41088 22.1736C9.56223 22.4832 9.78177 22.7546 10.053 22.9673L17.6758 30.5901Z" fill="#0D3450"/>
<path d="M36.534 27.491L27.163 36.862L11.459 21.158L20.83 11.787L36.534 27.491Z" fill="#E63F3F"/>
</g>
<defs>
<clipPath id="clip0_394_5137">
<rect width="40" height="26.7002" fill="white" transform="translate(19.2871 0.746338) rotate(45)"/>
</clipPath>
</defs>
</svg>
