<svg width="40" height="40" viewBox="0 0 40 40" fill="none" xmlns="http://www.w3.org/2000/svg">
<path d="M24.4209 12.22C24.3337 19.016 19.0358 24.375 12.2588 24.3987C5.41525 24.4225 0.00872967 19.0746 1.07525e-05 12.2152C-0.00870816 5.40101 5.28605 0.0174803 12.1819 4.24975e-05C19.0049 -0.0173953 24.3377 5.33364 24.4209 12.22ZM8.33529 4.32066C6.09929 4.32066 4.37215 6.06999 4.30795 8.27825C4.25167 10.2844 6.00417 12.3135 8.31786 12.3143C10.4619 12.3143 12.3095 10.4746 12.3167 8.33136C12.3238 6.13657 10.5222 4.32145 8.33529 4.32066Z" fill="#0D3450"/>
<path d="M25.5813 17.8341C25.735 17.9673 25.8571 18.0608 25.9649 18.1686C30.4131 22.6137 34.8582 27.0624 39.3001 31.5149C39.5299 31.7455 39.7487 32.0697 39.8018 32.3804C40.1331 34.3081 40.1632 36.2334 39.5933 38.1333C39.3714 38.8744 38.9069 39.3896 38.1531 39.5696C37.4128 39.7471 36.6598 39.935 35.9045 39.9778C34.9485 40.0317 33.9831 39.9564 33.0225 39.912C32.3701 39.8827 31.7788 39.6869 31.3579 39.1392C31.1114 38.8221 30.7801 38.7222 30.3822 38.7302C29.4857 38.7468 28.5893 38.7413 27.692 38.7302C26.7115 38.7199 26.1987 38.2269 26.1757 37.248C26.1551 36.4046 26.171 35.5604 26.167 34.7163C26.167 34.125 26.106 34.0687 25.5012 34.0663C24.6967 34.0663 23.8922 34.0727 23.0884 34.0616C21.9914 34.0473 21.5032 33.5496 21.5032 32.447C21.4984 31.6163 21.5032 30.7825 21.4992 29.955C21.4953 29.4794 21.4152 29.4001 20.9396 29.4001C20.1351 29.393 19.3306 29.4001 18.5269 29.3946C17.2943 29.3795 16.837 28.9127 16.8338 27.6825C16.8338 27.2339 16.8409 26.7853 16.8338 26.335C16.8283 26.0338 16.9416 25.846 17.2357 25.7358C18.9454 25.0954 20.4958 24.1886 21.8369 22.941C22.1452 22.6541 22.3378 22.834 22.5613 23.0575C26.3321 26.841 30.1061 30.6195 33.8833 34.3929C34.0371 34.556 34.2033 34.707 34.3802 34.8447C34.9295 35.241 35.7277 35.1713 36.151 34.7004C36.6337 34.1599 36.6265 33.479 36.1208 32.9147C36.0162 32.7966 35.9013 32.6872 35.7887 32.5754L24.3749 21.1616C23.908 20.6947 23.9239 20.7026 24.2671 20.1311C24.6349 19.5224 24.9694 18.8939 25.3189 18.2748C25.3958 18.1464 25.4766 18.0156 25.5813 17.8341Z" fill="#E63F3F"/>
</svg>
