<svg width="40" height="37" viewBox="0 0 40 37" fill="none" xmlns="http://www.w3.org/2000/svg">
<g clip-path="url(#clip0_394_5148)">
<path d="M20.0041 32.5969C22.4751 31.2383 25.1904 30.3816 27.9937 30.0763C30.797 29.7709 33.633 30.0229 36.3386 30.8176V6.33535C36.4601 6.35772 36.5802 6.38693 36.6983 6.42286C37.6706 6.91873 38.711 7.39515 39.693 7.92018C39.7773 7.98302 39.847 8.06335 39.8973 8.15565C39.9477 8.24795 39.9775 8.35005 39.9847 8.45494C39.9847 17.1148 39.9847 25.7747 39.9847 34.4345C40.0165 34.6217 39.9928 34.8141 39.9166 34.9879C39.8403 35.1618 39.7149 35.3095 39.5557 35.4129C39.3964 35.5163 39.2104 35.5708 39.0206 35.5697C38.8307 35.5687 38.6454 35.512 38.4874 35.4068C34.5544 33.5163 30.0882 33.0456 25.8476 34.0748C23.8706 34.4753 21.9659 35.1736 20.1986 36.1458C20.1367 36.1766 20.0684 36.1926 19.9993 36.1926C19.9301 36.1926 19.8619 36.1766 19.7999 36.1458C17.6566 34.7443 15.1964 33.9019 12.6439 33.6956C8.83336 33.282 4.98169 33.8999 1.49173 35.4846C0.587496 35.8832 0.0138453 35.4846 0.0138453 34.5123C0.00736339 25.833 0.00412242 17.1731 0.00412242 8.53273C-0.00723748 8.40054 0.019735 8.26788 0.0818115 8.15062C0.143888 8.03337 0.238439 7.93649 0.354147 7.87157C2.07007 6.7496 4.01203 6.0193 6.04204 5.73253C9.46466 5.12249 12.982 5.31217 16.3191 6.28674C17.5051 6.63734 18.63 7.16861 19.6541 7.86185C19.7732 7.92867 19.8705 8.02842 19.9343 8.14914C19.9981 8.26986 20.0257 8.40642 20.0138 8.54245C20.0138 16.3791 20.0138 24.2158 20.0138 32.0524L20.0041 32.5969Z" fill="#0D3450"/>
<path d="M23.6503 28.0757V27.5409C23.6503 21.2211 23.6503 14.9044 23.6503 8.59101C23.6383 8.43767 23.663 8.28368 23.7221 8.1417C23.7813 7.99972 23.8733 7.8738 23.9906 7.77429C26.7972 5.27875 29.5942 2.77024 32.3814 0.248767L32.6926 -0.00402832C32.6926 0.19043 32.6926 0.316827 32.6926 0.452948C32.6926 6.81172 32.6926 13.1705 32.6926 19.5293C32.6876 19.7589 32.6015 19.9793 32.4495 20.1515C29.591 22.7443 26.7259 25.3371 23.8544 27.9299L23.6503 28.0757Z" fill="#E63F3F"/>
</g>
<defs>
<clipPath id="clip0_394_5148">
<rect width="39.9968" height="36.1967" fill="white" transform="translate(0.00158691 -0.00402832)"/>
</clipPath>
</defs>
</svg>
