<svg width="41" height="40" viewBox="0 0 41 40" fill="none" xmlns="http://www.w3.org/2000/svg">
<path d="M20.0396 38.5005H7.46387C6.8481 38.5097 6.23669 38.3977 5.66556 38.171C5.09443 37.9443 4.57512 37.6076 4.13814 37.1806C3.70117 36.7536 3.35535 36.245 3.12102 35.6846C2.88668 35.1242 2.76856 34.5233 2.7736 33.9174C2.7736 31.282 2.7736 28.6513 2.7736 26.016C2.77055 25.8211 2.81063 25.6279 2.89106 25.4499C2.97149 25.2718 3.09034 25.1131 3.23937 24.9847C8.68883 19.6133 14.1383 14.2433 19.5878 8.87487C20.0535 8.41655 20.0535 8.41655 20.5193 8.87487C25.9532 14.2402 31.4027 19.6041 36.8677 24.9664C37.017 25.0945 37.136 25.2532 37.2164 25.4313C37.2969 25.6095 37.3368 25.8027 37.3335 25.9976C37.3335 28.6329 37.3335 31.2637 37.3335 33.899C37.3385 34.505 37.2204 35.1058 36.986 35.6662C36.7517 36.2266 36.4059 36.7353 35.9689 37.1623C35.5319 37.5893 35.0126 37.926 34.4415 38.1527C33.8704 38.3793 33.2589 38.4914 32.6432 38.4822L20.0396 38.5005ZM15.3493 29.2379C15.3493 30.567 15.3493 31.8962 15.3493 33.2253C15.3592 33.5113 15.3904 33.7962 15.4424 34.0778C15.485 34.4362 15.6607 34.7665 15.9359 35.0051C16.211 35.2438 16.5662 35.3738 16.9329 35.3702C19.0102 35.3702 21.0891 35.3702 23.1695 35.3702C23.5316 35.3742 23.8826 35.247 24.1557 35.013C24.4288 34.7789 24.605 34.4542 24.6506 34.1007C24.7003 33.8438 24.7268 33.583 24.7298 33.3215C24.7298 30.5991 24.7298 27.8752 24.7298 25.1497C24.7275 24.8766 24.6947 24.6046 24.632 24.3385C24.5722 24 24.3885 23.6947 24.1157 23.4802C23.8428 23.2658 23.4996 23.157 23.1509 23.1744C21.0689 23.1744 18.9916 23.1744 16.9096 23.1744C16.5643 23.1527 16.2231 23.2579 15.952 23.4696C15.681 23.6812 15.4994 23.9843 15.4424 24.3202C15.3749 24.6118 15.3421 24.9102 15.3446 25.2093C15.34 26.5522 15.3493 27.8951 15.3493 29.2379Z" fill="#0D3450"/>
<path d="M29.4156 10.2636C29.4156 10.0848 29.4435 9.90608 29.4435 9.73191C29.4435 7.59157 29.4435 5.45581 29.4435 3.31547C29.4156 2.11926 30.0024 1.53719 31.2134 1.50053C31.6373 1.50053 32.0611 1.50053 32.485 1.50053C32.6997 1.49132 32.9141 1.52447 33.1156 1.59802C33.3171 1.67157 33.5016 1.78405 33.6583 1.92882C33.815 2.07359 33.9406 2.24774 34.0279 2.44101C34.1151 2.63428 34.1622 2.84278 34.1664 3.05422C34.178 3.2756 34.178 3.49741 34.1664 3.71879C34.1664 7.31658 34.1664 10.9144 34.1664 14.5122C34.1584 14.7184 34.1959 14.924 34.2763 15.1147C34.3567 15.3053 34.4781 15.4766 34.6321 15.6167C36.2903 17.2056 37.9344 18.8173 39.5646 20.452C39.7452 20.6168 39.8845 20.8207 39.9715 21.0475C40.0585 21.2743 40.0909 21.5179 40.0661 21.759C40.0412 22.0002 39.9599 22.2325 39.8284 22.4375C39.697 22.6425 39.519 22.8147 39.3084 22.9406C39.0161 23.1136 38.6754 23.1909 38.3356 23.1612C37.9958 23.1316 37.6743 22.9966 37.4174 22.7756C37.287 22.6656 37.1706 22.5419 37.0495 22.4227L20.566 6.21662C20.4635 6.11579 20.375 5.97829 20.2493 5.92788C20.0992 5.87188 19.9336 5.87188 19.7835 5.92788C19.6578 5.97371 19.5693 6.11579 19.4621 6.21662L2.97866 22.4777C2.8165 22.6671 2.61488 22.8199 2.38747 22.9258C2.16005 23.0318 1.91215 23.0884 1.66055 23.0919C1.37009 23.1101 1.08087 23.0409 0.831305 22.8936C0.581734 22.7462 0.383614 22.5277 0.263248 22.2669C0.12151 21.9906 0.0645349 21.6797 0.0992702 21.3721C0.134006 21.0644 0.25895 20.7734 0.45887 20.5345C0.561462 20.4159 0.67029 20.3027 0.784906 20.1953L18.6703 2.58216C19.6019 1.66552 20.4682 1.66552 21.4137 2.58216L28.9172 9.96566C29.0336 10.0802 29.1594 10.1902 29.2851 10.3048L29.4156 10.2636Z" fill="#E63F3F"/>
</svg>
