<svg width="41" height="40" viewBox="0 0 41 40" fill="none" xmlns="http://www.w3.org/2000/svg">
<path d="M0 25.1099C1.17016 24.9259 2.34032 24.7522 3.50537 24.5478C3.58321 24.5229 3.65488 24.4818 3.71566 24.4272C3.77644 24.3726 3.82494 24.3057 3.85795 24.231C4.15432 23.5616 4.44558 22.8871 4.69085 22.187C4.74527 21.972 4.71219 21.7441 4.59888 21.5534C4.04701 20.7188 3.47641 19.8995 2.88707 19.0956C2.83505 19.0466 2.79473 18.9865 2.76913 18.9198C2.74352 18.8531 2.73328 18.7815 2.73918 18.7103C2.74507 18.6391 2.76694 18.5702 2.80316 18.5086C2.83938 18.447 2.88902 18.3944 2.94839 18.3546C3.51048 17.813 4.06064 17.2577 4.59888 16.6888C4.64079 16.6218 4.69769 16.5654 4.76509 16.5241C4.83249 16.4828 4.90855 16.4577 4.9873 16.4507C5.06604 16.4438 5.14533 16.4552 5.21891 16.4841C5.29249 16.513 5.35836 16.5586 5.41134 16.6173C6.1676 17.1845 6.9443 17.7108 7.71589 18.278C7.85425 18.4022 8.03059 18.4759 8.21618 18.487C8.40177 18.4981 8.58565 18.4461 8.73786 18.3393C9.25568 18.0806 9.79406 17.8652 10.3475 17.6955C10.4935 17.6595 10.6248 17.5793 10.7236 17.4659C10.8224 17.3525 10.8837 17.2114 10.8993 17.0618C11.0424 16.1165 11.2161 15.1712 11.3541 14.2208C11.3567 14.1445 11.3756 14.0697 11.4094 14.0013C11.4432 13.933 11.4912 13.8726 11.5502 13.8242C11.6092 13.7759 11.6778 13.7406 11.7515 13.7209C11.8252 13.7012 11.9022 13.6974 11.9775 13.7098C12.7542 13.7098 13.5309 13.7098 14.3076 13.7098C14.382 13.6962 14.4584 13.6992 14.5315 13.7187C14.6045 13.7382 14.6723 13.7737 14.73 13.8226C14.7877 13.8715 14.8338 13.9325 14.865 14.0014C14.8963 14.0702 14.9118 14.1452 14.9106 14.2208C15.0639 15.1661 15.2529 16.1063 15.4216 17.0567C15.4361 17.2248 15.5039 17.3838 15.6151 17.5107C15.7263 17.6375 15.8751 17.7255 16.0399 17.7619C16.6248 17.9625 17.1965 18.1997 17.7517 18.4722C17.8613 18.5292 17.9854 18.5524 18.1082 18.5387C18.2311 18.5251 18.3471 18.4752 18.4415 18.3955C19.2437 17.7977 20.0664 17.2305 20.8636 16.6275C20.9162 16.5686 20.9817 16.5227 21.0551 16.4934C21.1284 16.4641 21.2076 16.4522 21.2863 16.4586C21.3651 16.465 21.4412 16.4896 21.5088 16.5305C21.5765 16.5713 21.6337 16.6273 21.676 16.6939C22.2432 17.2816 22.8206 17.8539 23.4083 18.4211C23.4562 18.4547 23.4963 18.4984 23.5257 18.5491C23.555 18.5998 23.573 18.6563 23.5784 18.7146C23.5837 18.773 23.5763 18.8318 23.5566 18.887C23.537 18.9422 23.5055 18.9924 23.4645 19.0343C22.8666 19.8672 22.2892 20.7154 21.6914 21.5483C21.5868 21.6723 21.5248 21.8267 21.5147 21.9887C21.5046 22.1506 21.5468 22.3115 21.6352 22.4476C21.9017 22.9888 22.1322 23.547 22.325 24.1186C22.3547 24.2539 22.4266 24.3763 22.5304 24.4682C22.6342 24.56 22.7644 24.6165 22.9024 24.6295C23.8784 24.7828 24.8493 24.9617 25.8252 25.1099C26.2085 25.1661 26.3771 25.3398 26.3669 25.7282C26.3669 26.5049 26.3669 27.2611 26.3669 28.0532C26.3669 28.4517 26.1983 28.6101 25.8201 28.6715C24.8748 28.8196 23.9295 28.9985 22.979 29.1467C22.8174 29.1596 22.6641 29.2235 22.5411 29.3291C22.418 29.4346 22.3316 29.5765 22.2943 29.7343C22.0977 30.3183 21.8621 30.8885 21.5892 31.441C21.5217 31.5521 21.4913 31.6817 21.5023 31.8112C21.5133 31.9407 21.5652 32.0634 21.6505 32.1615C22.2432 32.9637 22.8104 33.7915 23.4083 34.5887C23.4686 34.6428 23.516 34.7098 23.5469 34.7846C23.5779 34.8595 23.5917 34.9404 23.5873 35.0213C23.5829 35.1022 23.5604 35.181 23.5214 35.2521C23.4825 35.3231 23.4281 35.3846 23.3623 35.4318C22.7747 35.9786 22.2126 36.5509 21.6556 37.1283C21.6181 37.1814 21.5695 37.2257 21.513 37.258C21.4566 37.2903 21.3937 37.3098 21.3289 37.3151C21.2641 37.3205 21.1989 37.3116 21.1379 37.289C21.077 37.2664 21.0217 37.2307 20.976 37.1845C20.1226 36.5713 19.254 35.9837 18.4211 35.3705C18.3259 35.2921 18.2084 35.2459 18.0853 35.2386C17.9623 35.2312 17.8401 35.2631 17.7363 35.3296C17.1538 35.6055 16.5611 35.8559 15.9581 36.0808C15.6873 36.1829 15.4982 36.3107 15.4471 36.5917C15.2529 37.7312 15.0588 38.8656 14.8595 40.0051H11.4461C11.257 38.9065 11.0526 37.813 10.8789 36.7093C10.8638 36.5541 10.8005 36.4076 10.6978 36.2903C10.5952 36.173 10.4584 36.0908 10.3066 36.0552C9.76589 35.891 9.2409 35.679 8.73786 35.4216C8.57361 35.3155 8.37895 35.2665 8.18404 35.2822C7.98913 35.2979 7.80484 35.3774 7.65968 35.5084C6.87276 36.0807 6.06541 36.6173 5.27338 37.1845C5.23191 37.2258 5.18195 37.2576 5.12697 37.2777C5.07199 37.2977 5.0133 37.3056 4.95497 37.3008C4.89664 37.2959 4.84006 37.2784 4.78916 37.2495C4.73826 37.2206 4.69425 37.181 4.66019 37.1334C4.08789 36.556 3.5258 35.9939 2.95861 35.4267C2.58048 35.0486 2.58048 34.9872 2.88707 34.5631L4.558 32.2279C4.65057 32.1344 4.71277 32.0151 4.73648 31.8856C4.76018 31.7562 4.74428 31.6226 4.69085 31.5023C4.4047 30.8687 4.17987 30.2197 3.87328 29.5861C3.83372 29.495 3.77624 29.4127 3.70426 29.3443C3.63228 29.2758 3.54726 29.2225 3.45427 29.1875C2.30966 28.9576 1.15483 28.7736 0 28.5795V25.1099ZM17.6852 26.883C17.6873 25.9835 17.4222 25.1036 16.9236 24.3549C16.425 23.6061 15.7153 23.0223 14.8845 22.6774C14.0537 22.3325 13.1392 22.2419 12.257 22.4173C11.3747 22.5927 10.5643 23.026 9.92861 23.6625C9.2929 24.2989 8.86045 25.1097 8.68608 25.9922C8.5117 26.8747 8.60325 27.7891 8.94913 28.6195C9.295 29.4499 9.87963 30.1589 10.6289 30.6566C11.3782 31.1544 12.2584 31.4185 13.1579 31.4154C13.7536 31.4182 14.344 31.3027 14.8948 31.0759C15.4457 30.849 15.9461 30.5151 16.3671 30.0937C16.7881 29.6722 17.1213 29.1714 17.3476 28.6203C17.5739 28.0692 17.6886 27.4787 17.6852 26.883Z" fill="#0D3450"/>
<path d="M24.1901 14.1799C23.3776 14.3587 22.6571 14.5018 21.9111 14.6909C21.8421 14.7205 21.7675 14.7345 21.6925 14.732C21.6175 14.7295 21.5439 14.7105 21.4771 14.6763C21.4103 14.6422 21.3518 14.5937 21.3058 14.5344C21.2598 14.4751 21.2275 14.4064 21.211 14.3332C21.0169 13.8222 20.8125 13.3112 20.5927 12.8002C20.5569 12.741 20.5348 12.6744 20.528 12.6055C20.5212 12.5366 20.5299 12.4671 20.5534 12.4019C20.5769 12.3368 20.6146 12.2778 20.6639 12.2291C20.7131 12.1804 20.7726 12.1434 20.838 12.1206C21.4205 11.7834 21.9826 11.4206 22.56 11.0986C22.7059 11.022 22.8236 10.9011 22.8961 10.7532C22.9687 10.6053 22.9924 10.4382 22.9637 10.2759C22.9474 9.91629 22.9576 9.55591 22.9944 9.19777C23.0181 9.04248 22.9941 8.88365 22.9257 8.74225C22.8573 8.60085 22.7476 8.48352 22.6111 8.40574C22.0031 8.03272 21.4205 7.62393 20.8176 7.25602C20.758 7.23624 20.7039 7.20285 20.6595 7.15851C20.6152 7.11418 20.5817 7.0601 20.5619 7.00059C20.5421 6.94107 20.5364 6.87775 20.5453 6.81565C20.5542 6.75355 20.5774 6.69438 20.6132 6.64284C20.838 6.13185 21.068 5.62086 21.2621 5.07922C21.277 5.01007 21.3072 4.94515 21.3506 4.88932C21.394 4.83348 21.4495 4.78816 21.5128 4.75672C21.5762 4.72529 21.6458 4.70856 21.7165 4.70777C21.7873 4.70699 21.8573 4.72217 21.9213 4.75219C22.5958 4.93103 23.2805 5.06389 23.9652 5.23251C24.096 5.27442 24.2368 5.27374 24.3671 5.23059C24.4975 5.18743 24.6109 5.10402 24.6908 4.99235C24.9701 4.67907 25.2706 4.38541 25.5902 4.11345C25.7015 4.03312 25.785 3.92002 25.829 3.78993C25.873 3.65985 25.8752 3.51928 25.8355 3.38785C25.6719 2.70824 25.5442 2.02352 25.3807 1.34391C25.3535 1.28061 25.3407 1.21206 25.3432 1.14321C25.3458 1.07437 25.3636 1.00694 25.3954 0.94582C25.4271 0.884696 25.4721 0.831398 25.527 0.789781C25.5819 0.748163 25.6454 0.719266 25.7128 0.705177C26.2442 0.511002 26.7757 0.286168 27.3071 0.0562243C27.3569 0.0250376 27.413 0.00511407 27.4713 -0.00215323C27.5297 -0.00942052 27.5889 -0.00385613 27.6449 0.0141509C27.7008 0.0321579 27.7522 0.0621728 27.7953 0.102097C27.8385 0.142021 27.8724 0.190891 27.8947 0.245289C28.2575 0.858473 28.6561 1.44611 29.0138 2.05929C29.0809 2.19422 29.1897 2.30389 29.3241 2.37202C29.4585 2.44014 29.6113 2.46308 29.7598 2.43742C30.1783 2.40677 30.5984 2.40677 31.0169 2.43742C31.1331 2.45895 31.2532 2.44219 31.3592 2.38968C31.4651 2.33717 31.5512 2.25172 31.6045 2.14616C31.9622 1.56363 32.3454 0.981109 32.7031 0.383256C32.7279 0.307657 32.77 0.238894 32.8261 0.182446C32.8822 0.125998 32.9507 0.0834239 33.0261 0.0581146C33.1015 0.0328053 33.1818 0.0254604 33.2606 0.0366649C33.3394 0.0478694 33.4144 0.0773138 33.4798 0.122653C33.9908 0.347486 34.4711 0.551881 34.9719 0.751166C35.0357 0.766574 35.0955 0.795319 35.1474 0.83551C35.1993 0.875701 35.2421 0.926427 35.273 0.984351C35.3039 1.04227 35.3222 1.10608 35.3267 1.17158C35.3311 1.23707 35.3217 1.30277 35.2989 1.36435C35.1354 2.06951 34.9872 2.77467 34.8186 3.47983C34.781 3.59757 34.7816 3.72415 34.8201 3.84158C34.8586 3.959 34.9332 4.06129 35.0332 4.13389C35.3703 4.43558 35.6845 4.7618 35.9734 5.10988C36.0463 5.21092 36.1495 5.28616 36.268 5.32474C36.3865 5.36332 36.5142 5.36323 36.6326 5.32449C37.3224 5.16098 38.0174 5.0179 38.7072 4.84416C38.773 4.81429 38.8447 4.79965 38.9169 4.80134C38.9892 4.80302 39.0601 4.82098 39.1245 4.85389C39.1888 4.8868 39.2449 4.9338 39.2885 4.99139C39.3322 5.04899 39.3623 5.11569 39.3766 5.18653C39.5656 5.69751 39.7854 6.23405 40.0204 6.75014C40.0489 6.79765 40.0672 6.85049 40.0744 6.9054C40.0815 6.9603 40.0773 7.01608 40.0619 7.06928C40.0466 7.12247 40.0205 7.17195 39.9852 7.21462C39.9499 7.2573 39.9063 7.29226 39.8569 7.31734C39.2182 7.71591 38.5948 8.12981 37.956 8.51816C37.8399 8.57749 37.7459 8.67261 37.6879 8.78946C37.6299 8.90632 37.6111 9.03872 37.6341 9.16711C37.6699 9.58535 37.6699 10.0059 37.6341 10.4241C37.6107 10.5532 37.6299 10.6863 37.6889 10.8034C37.7479 10.9205 37.8435 11.0152 37.9612 11.0731C38.5641 11.4461 39.1569 11.8345 39.77 12.1973C39.8381 12.2214 39.8997 12.2608 39.95 12.3125C40.0004 12.3643 40.0382 12.4269 40.0604 12.4956C40.0826 12.5643 40.0888 12.6372 40.0783 12.7086C40.0678 12.7801 40.041 12.8481 40 12.9075C39.7649 13.4185 39.5452 13.9295 39.3459 14.4405C39.3304 14.5013 39.3018 14.558 39.2623 14.6067C39.2227 14.6555 39.173 14.695 39.1167 14.7227C39.0603 14.7504 38.9987 14.7655 38.9359 14.7671C38.8732 14.7687 38.8108 14.7566 38.7532 14.7317C38.0634 14.5733 37.3684 14.4252 36.6786 14.2565C36.5431 14.2072 36.3953 14.2029 36.2572 14.2444C36.1191 14.2858 35.9981 14.3707 35.9121 14.4865C35.6173 14.823 35.2998 15.1388 34.9617 15.4318C34.8646 15.4985 34.7914 15.5945 34.7528 15.7057C34.7142 15.8169 34.7122 15.9376 34.7471 16.0501C34.9208 16.7501 35.069 17.4553 35.258 18.1554C35.2872 18.2178 35.3022 18.2859 35.3018 18.3548C35.3015 18.4237 35.2858 18.4916 35.256 18.5537C35.2262 18.6158 35.1829 18.6705 35.1294 18.7139C35.0758 18.7572 35.0133 18.7881 34.9463 18.8043C34.4047 19.0087 33.8682 19.2335 33.3418 19.4635C33.2922 19.4957 33.236 19.5167 33.1773 19.5248C33.1187 19.5329 33.0589 19.528 33.0023 19.5105C32.9458 19.4929 32.8938 19.4631 32.85 19.4232C32.8062 19.3833 32.7718 19.3342 32.7491 19.2795C32.371 18.6612 31.9673 18.0634 31.5892 17.4451C31.5252 17.3229 31.4266 17.2223 31.3057 17.1559C31.1848 17.0895 31.047 17.0604 30.9095 17.0721C30.5008 17.0721 30.092 17.0721 29.6883 17.0721C29.531 17.0593 29.3733 17.0932 29.2352 17.1695C29.097 17.2459 28.9845 17.3613 28.9116 17.5013C28.5539 18.0838 28.1707 18.651 27.813 19.2335C27.7896 19.2915 27.7538 19.3436 27.7081 19.3862C27.6625 19.4289 27.6081 19.4611 27.5487 19.4805C27.4894 19.5 27.4265 19.5063 27.3644 19.4989C27.3024 19.4916 27.2427 19.4707 27.1896 19.4379C26.6479 19.1978 26.1012 18.978 25.5493 18.7583C25.492 18.7437 25.4386 18.717 25.3925 18.68C25.3464 18.643 25.3088 18.5965 25.2821 18.5437C25.2555 18.491 25.2405 18.4331 25.2381 18.374C25.2357 18.315 25.246 18.2561 25.2683 18.2013C25.442 17.5013 25.5902 16.791 25.7792 16.091C25.8261 15.9624 25.8289 15.8219 25.7873 15.6915C25.7457 15.5611 25.662 15.4482 25.5493 15.3705C25.2069 15.0894 24.9208 14.742 24.5938 14.4354C24.4672 14.3382 24.3321 14.2527 24.1901 14.1799ZM30.3219 13.2141C31.2399 13.2087 32.1185 12.8403 32.7657 12.1892C33.4129 11.5382 33.7762 10.6574 33.7762 9.73941C33.7762 8.81922 33.4106 7.93671 32.76 7.28604C32.1093 6.63536 31.2268 6.26982 30.3066 6.26982C29.3864 6.26982 28.5039 6.63536 27.8532 7.28604C27.2025 7.93671 26.837 8.81922 26.837 9.73941C26.8356 10.1974 26.9251 10.6511 27.1002 11.0743C27.2753 11.4975 27.5325 11.8817 27.8571 12.2049C28.1816 12.528 28.567 12.7836 28.991 12.9568C29.415 13.13 29.8691 13.2175 30.327 13.2141H30.3219Z" fill="#E63F3F"/>
</svg>
